<svg xmlns="http://www.w3.org/2000/svg" width="104" height="24" fill="none" viewBox="0 0 104 24"><rect width="104" height="24" fill="#fff" rx="4"/><path fill="#FF5200" d="M31.63 10.8c-.13-.24-.73-1.25-2.33-1.25-1.48 0-2.53 1.2-2.53 2.68 0 1.49 1.05 2.68 2.54 2.68 1.63 0 2.22-1 2.35-1.25h1.46c-.08.53-.94 2.54-3.8 2.54a3.97 3.97 0 1 1-.02-7.94c2.9 0 3.7 1.98 3.82 2.54h-1.49ZM34.83 8.44h1.48v5.7l4.65-5.7h1.47v7.58h-1.47v-5.75l-4.65 5.75h-1.48V8.44ZM47 9.7h-3.23V8.44h7.95V9.7h-3.24v6.32h-1.47V9.7ZM53.05 8.44h1.48v5.7l4.65-5.7h1.47v7.58h-1.47v-5.75l-4.65 5.75h-1.48V8.44ZM64.12 8.44h5.97v7.58H68.6V9.7h-3.3L65 12.74c-.24 2.32-.88 3.38-2.58 3.38h-.44v-1.25h.2c1.1 0 1.33-.51 1.5-2.23l.44-4.2ZM72.4 8.44h1.47v5.7l4.65-5.7H80v7.58h-1.48v-5.75l-4.65 5.75H72.4V8.44ZM82.31 8.44h1.48v3.1h4.48v-3.1h1.48v7.58h-1.48V12.8H83.8v3.22H82.3V8.44ZM92.05 8.44h1.42v3.28l4.22-3.28h2.1l-4.73 3.64 4.94 3.94h-2.09l-4.44-3.47v3.47h-1.42V8.44ZM17.09 18.38l-8.74 1.56C6.1 20.34 4 18.7 4 16.53V7.47c0-2.17 2.1-3.81 4.35-3.4l8.74 1.55c1.3.23 2.24 1.3 2.24 2.56v7.64c0 1.25-.94 2.33-2.24 2.56"/><path fill="#fff" d="M8.76 15.17V9.1c0-.28.27-.5.56-.46l6.43.9V8.2L9.6 7.3c-1.2-.18-2.27.7-2.27 1.84v6.02c0 1.14 1.08 2.01 2.27 1.84l6.14-.91.01-1.36-6.43.91c-.3.05-.57-.17-.57-.46"/></svg>