<svg xmlns="http://www.w3.org/2000/svg" width="165" height="49" fill="none" viewBox="0 0 165 49"><path fill="url(#a)" d="M35.82 11.02H12.57v9.1h23.25v-9.1Z"/><path fill="url(#b)" d="M3 37.4V20.15L12.58 11v26.39H3v.02Z"/><path fill="url(#c)" d="M45.42 37.4V20.15L35.8 11v26.39h9.6v.02Z"/><path fill="#000" d="M55.03 20.12h16.7v17.27h-4.8V24.62h-7.1v12.77h-4.8V20.12ZM88.1 20.12h4.8v17.27h-4.8V34.9a6.85 6.85 0 0 1-5.66 2.92c-4.72 0-8.23-3.7-8.23-9.05 0-5.34 3.44-9.13 8.34-9.13 2.2 0 4.38.96 5.55 2.74v-2.26Zm-.16 8.67c0-.6-.11-1.18-.32-1.74a4.46 4.46 0 0 0-4.13-2.81A4.55 4.55 0 0 0 80.42 32a4.43 4.43 0 0 0 3.12 1.36c1.17-.02 2.3-.5 3.14-1.36a4.8 4.8 0 0 0 1.26-3.2ZM107.28 37.4l-3.8-6.28h-2.64v6.29H96.2V20.14h4.64V27h2.49l3.93-6.85h5.29l-5.1 8.51 5.7 8.73h-5.87v.02Z"/><path fill="#000" d="M130.67 30.33H117.8c.5 2.02 2.15 3.23 4.38 3.23a5.88 5.88 0 0 0 4.49-2.05l2.76 2.85c-1.6 2.19-4.57 3.48-7.57 3.48-5.28 0-9.11-3.75-9.11-9.05 0-5.6 4.22-9.1 9.08-9.1s8.9 3.51 8.9 8.8c.03.48 0 1.09-.07 1.84Zm-4.72-3.13c-.16-2.03-1.79-3.34-3.95-3.34-1.99 0-3.67.99-4.17 3.34h8.12ZM147.27 20.12v4.53h-5.3v12.77h-4.83V24.65h-5.3v-4.51h15.43v-.02ZM159.9 19.63l-1-1.79-1 1.79h-1.2l1.55-2.7-1.56-2.5h1.25l1.01 1.66.96-1.67h1.2l-1.55 2.59 1.58 2.62h-1.23ZM165 17.86c0 1.15-.8 1.87-1.9 1.87-.93 0-1.72-.55-1.81-1.75h1c.08.52.47.74.9.74.54 0 .78-.4.78-.88 0-.5-.37-.83-.86-.83a.9.9 0 0 0-.81.42h-.98l.33-3h3.2l-.1 1h-2.3l-.1 1s.24-.3.98-.3c.9 0 1.67.62 1.67 1.73Z"/><path fill="#5FAF2D" d="M161.41 13.78c-.55-2.23-2.26-3.8-5.84-3.8h-4.33l.6 4.2c.43 3.78 1.8 4.98 4.22 5.43.02 0 .1.02.1-.08 0-.04-.02-.06-.06-.08-1.64-.72-1.82-3.1-2.17-5.51l-.28-1.9h2.47c2.28 0 4.03-.04 5.15 1.8.01.02.03.04.07.04.04 0 .07-.04.07-.08v-.02Z"/><defs><linearGradient id="a" x1="14.9" x2="32.73" y1="12.67" y2="18.12" gradientUnits="userSpaceOnUse"><stop stop-color="#00F0FF"/><stop offset="1" stop-color="#0184FF"/></linearGradient><linearGradient id="b" x1="7.79" x2="7.79" y1="34.99" y2="13.22" gradientUnits="userSpaceOnUse"><stop stop-color="#0184FF"/><stop offset="1" stop-color="#2FAAF4"/></linearGradient><linearGradient id="c" x1="40.62" x2="40.62" y1="37" y2="12.6" gradientUnits="userSpaceOnUse"><stop offset=".17" stop-color="#0184FF"/><stop offset=".91" stop-color="#04BBE4"/></linearGradient></defs></svg>