<svg xmlns="http://www.w3.org/2000/svg" width="83" height="27" fill="none" viewBox="0 0 83 27"><path fill="#fff" d="M28.48 21V10.82h6.53v1.54h-4.68v2.77h4.23v1.54h-4.23V21h-1.85Zm8.13 0v-7.64h1.8V21h-1.8Zm.9-8.72c-.28 0-.53-.1-.73-.28a.91.91 0 0 1-.31-.7c0-.27.1-.5.3-.69.21-.19.46-.28.74-.28.29 0 .53.1.74.28.2.2.3.42.3.7 0 .26-.1.5-.3.69-.2.19-.45.28-.74.28Zm4.55 4.25V21h-1.8v-7.64h1.72v1.3h.09c.17-.43.45-.77.84-1.02.38-.25.86-.38 1.43-.38.53 0 .99.12 1.38.34.4.23.7.55.92.98.21.43.32.95.32 1.56V21h-1.8v-4.58c0-.51-.13-.91-.4-1.2a1.4 1.4 0 0 0-1.09-.43c-.31 0-.6.07-.84.2a1.5 1.5 0 0 0-.57.6 2 2 0 0 0-.2.94Zm9.56 4.6a2.89 2.89 0 0 1-2.73-1.8 5 5 0 0 1-.42-2.14c0-.85.14-1.56.42-2.15a2.93 2.93 0 0 1 3.84-1.55c.29.15.52.33.69.54.17.21.3.41.39.6h.07v-3.81h1.8V21h-1.76v-1.2h-.11c-.1.18-.23.38-.4.59a2.22 2.22 0 0 1-1.79.74Zm.5-1.47c.39 0 .71-.1.98-.31.27-.2.47-.5.61-.87s.2-.8.2-1.3-.06-.92-.2-1.29a1.83 1.83 0 0 0-.6-.85c-.27-.2-.6-.3-.99-.3-.4 0-.73.1-1 .31s-.47.5-.6.87a3.9 3.9 0 0 0-.01 2.54 2 2 0 0 0 .61.88c.28.21.61.32 1 .32ZM57.7 21V10.82h6.62v1.54h-4.78v2.77h4.44v1.54h-4.44v2.78h4.82V21H57.7Zm11.25.13a2.89 2.89 0 0 1-2.73-1.8 5 5 0 0 1-.41-2.14c0-.85.14-1.56.41-2.15a2.93 2.93 0 0 1 3.84-1.55c.3.15.52.33.69.54.17.21.3.41.4.6h.07v-3.81H73V21h-1.77v-1.2h-.1c-.1.18-.24.38-.41.59a2.22 2.22 0 0 1-1.79.74Zm.5-1.47c.39 0 .71-.1.98-.31.27-.2.47-.5.61-.87s.21-.8.21-1.3-.07-.92-.2-1.29a1.83 1.83 0 0 0-.61-.85c-.27-.2-.6-.3-.98-.3-.4 0-.74.1-1 .31-.28.21-.48.5-.61.87-.14.37-.2.79-.2 1.26 0 .48.06.9.2 1.28a2 2 0 0 0 .6.88c.28.21.61.32 1 .32Zm10.36-1.87v-4.43h1.8V21h-1.75v-1.36h-.08a2.3 2.3 0 0 1-.85 1.05c-.39.27-.87.4-1.45.4-.5 0-.94-.1-1.32-.32a2.31 2.31 0 0 1-.9-.98 3.46 3.46 0 0 1-.32-1.56v-4.87h1.8v4.59c0 .48.13.87.4 1.15.26.29.6.43 1.04.43a1.65 1.65 0 0 0 1.38-.77c.16-.26.25-.58.25-.97Z"/><mask id="a" width="24" height="23" x="0" y="0" maskUnits="userSpaceOnUse" style="mask-type:alpha"><path fill="#C4C4C4" d="m0 7.66 7.67-3.9 7.35 14.42-7.67 3.9z"/><path fill="#C4C4C4" d="M7.66 13.34 4.9 5.2 20.24 0 23 8.16z"/></mask><g stroke="#fff" stroke-width="2" mask="url(#a)"><circle cx="11.37" cy="11.32" r="6.23"/><circle cx="11.37" cy="11.32" r="6.23" stroke-opacity=".2"/></g><path fill="#fff" d="M10.34 26.82V22h2.07v4.82z"/></svg>