<svg xmlns="http://www.w3.org/2000/svg" width="116" height="20" fill="none" viewBox="0 0 116 20"><path fill="#fff" d="M23.8 0H6.95v6.53H23.8V0ZM0 18.94V6.55L6.95 0v18.94H0ZM30.76 18.94V6.55L23.8 0v18.94h6.96ZM37.72 6.53h12.1v12.4h-3.47V9.75H41.2v9.16h-3.48V6.53ZM61.7 6.53h3.48v12.4h-3.49v-1.8a4.87 4.87 0 0 1-4.1 2.09c-3.41 0-5.96-2.65-5.96-6.48 0-3.83 2.5-6.55 6.05-6.55 1.6 0 3.18.7 4.01 1.96V6.53Zm-.12 6.22a3.16 3.16 0 0 0-2-3.02 3.1 3.1 0 0 0-1.24-.25c-.85.03-1.66.4-2.25 1a3.34 3.34 0 0 0-.91 2.29c0 .85.33 1.68.93 2.28.6.61 1.4.96 2.26.98a3.27 3.27 0 0 0 3.21-3.28ZM75.6 18.94l-2.75-4.51h-1.91v4.51h-3.38V6.55h3.38v4.92h1.8l2.85-4.9h3.83l-3.7 6.1 4.14 6.27H75.6Z"/><path fill="#fff" d="M92.56 13.86h-9.32c.37 1.46 1.55 2.31 3.18 2.31a4.37 4.37 0 0 0 3.26-1.46l2.01 2.05c-1.17 1.56-3.32 2.5-5.49 2.5-3.83 0-6.61-2.7-6.61-6.5 0-4.01 3.05-6.53 6.58-6.53 3.53 0 6.46 2.52 6.46 6.32.01.33-.02.77-.07 1.31Zm-3.42-2.25c-.1-1.45-1.3-2.39-2.86-2.39-1.44 0-2.66.72-3.02 2.4h5.88ZM104.6 6.53v3.25h-3.85v9.16h-3.5V9.78h-3.84V6.53h11.18ZM112.42 6.5l-.71-1.2-.7 1.2h-.84l1.1-1.78-1.11-1.67h.89l.7 1.11.67-1.1h.84l-1.1 1.7 1.1 1.74h-.84ZM116 5.32c0 .76-.57 1.23-1.33 1.23a1 1 0 0 1-.48-.06 1 1 0 0 1-.4-.26 1 1 0 0 1-.3-.4 1.5 1.5 0 0 1-.1-.47h.7c.02.15.1.29.23.38.1.1.27.15.41.13.08 0 .16 0 .22-.03a.66.66 0 0 0 .2-.13c.04-.05.09-.12.1-.19.02-.08.03-.14.02-.22a.51.51 0 0 0-.05-.22.44.44 0 0 0-.14-.2.52.52 0 0 0-.2-.1c-.09-.03-.17-.03-.24-.03a.82.82 0 0 0-.34.06.67.67 0 0 0-.25.22h-.65l.24-2h2.26l-.08.67h-1.61l-.06.67s.17-.2.67-.2c.16-.02.3 0 .46.05a1 1 0 0 1 .38.26c.11.1.2.23.26.38.06.16.1.31.08.46Z"/><path fill="#fff" d="M113.48 2.61c-.38-1.49-1.6-2.55-4.11-2.55h-3.04l.43 2.8c.31 2.52 1.28 3.33 2.97 3.63h.03c.02 0 .02 0 .02-.02l.01-.01v-.04l-.01-.03-.03-.01c-1.16-.5-1.28-2.08-1.54-3.67l-.19-1.29h1.74c1.6 0 2.83-.03 3.63 1.22l.01.02h.05s.02 0 .02-.02l.01-.01s.02 0 0-.02Z"/></svg>