<svg xmlns="http://www.w3.org/2000/svg" width="56" height="40" fill="none" viewBox="0 0 56 40"><g clip-path="url(#a)"><path fill="#000" d="m35.26 39.4-4.16-7.3-4.07 7.3h-4.87l6.26-10.99-6.39-10.2h5.1l4.08 6.81 3.9-6.8H40l-6.28 10.53 6.45 10.64h-4.9ZM56 32.2c0 4.66-3.3 7.56-7.68 7.56-3.84 0-7.08-2.24-7.39-7.1h4.16c.28 2.09 1.89 3.02 3.64 3.02 2.17 0 3.11-1.55 3.11-3.54 0-2-1.46-3.4-3.5-3.4-.64-.03-1.29.12-1.87.42-.58.31-1.07.77-1.43 1.34h-3.97l1.38-12.29h13.04l-.44 4.12h-9.34l-.37 4.06s.98-1.21 3.97-1.21c3.57 0 6.69 2.53 6.69 7.02Z"/><path fill="#5FAF2D" d="M41.42 15.58C39.2 6.5 32.15.07 17.59.07H0l2.39 17.05c1.8 15.37 7.37 20.34 17.24 22.16a.27.27 0 0 0 .27-.06.32.32 0 0 0 .1-.27.33.33 0 0 0-.06-.19.3.3 0 0 0-.14-.12c-6.68-2.96-7.44-12.69-8.86-22.44l-1.1-7.77h10.04c9.27 0 16.42-.16 20.95 7.4.03.05.08.1.13.13s.1.04.17.05a.29.29 0 0 0 .22-.1.33.33 0 0 0 .08-.24l-.01-.09Z"/></g><defs><clipPath id="a"><path fill="#fff" d="M0 0h56v40H0z"/></clipPath></defs></svg>