<svg xmlns="http://www.w3.org/2000/svg" width="28" height="24" fill="none" viewBox="0 0 28 24"><rect width="28" height="24" fill="#fff" rx="4"/><path fill="#000" d="m16.6 18.96-1.5-2.6-1.45 2.6h-1.74l2.24-3.92-2.28-3.65h1.82l1.46 2.44 1.39-2.44h1.74l-2.24 3.77 2.3 3.8H16.6ZM24 16.39c0 1.66-1.18 2.7-2.74 2.7-1.38 0-2.53-.8-2.64-2.54h1.48c.1.75.68 1.08 1.3 1.08.78 0 1.12-.55 1.12-1.26 0-.72-.53-1.21-1.25-1.21-.23-.02-.46.03-.67.14-.2.11-.39.28-.51.48h-1.42l.49-4.39h4.66l-.16 1.47h-3.34l-.13 1.46s.35-.44 1.42-.44c1.27 0 2.39.9 2.39 2.5Z"/><path fill="#5FAF2D" d="M18.8 10.45c-.8-3.24-3.32-5.54-8.52-5.54H4l.85 6.1c.64 5.48 2.64 7.26 6.16 7.9a.1.1 0 0 0 .1-.02.11.11 0 0 0 .03-.1c0-.02 0-.04-.02-.06a.11.11 0 0 0-.05-.04c-2.38-1.06-2.65-4.53-3.16-8.01L7.5 7.9h3.6c3.3 0 5.86-.06 7.47 2.64l.05.05.06.02a.1.1 0 0 0 .08-.04.12.12 0 0 0 .03-.08v-.04Z"/></svg>