<?xml version="1.0" standalone="no"?>
<!DOCTYPE svg PUBLIC "-//W3C//DTD SVG 20010904//EN"
 "http://www.w3.org/TR/2001/REC-SVG-20010904/DTD/svg10.dtd">
<svg version="1.0" xmlns="http://www.w3.org/2000/svg"
 width="512.000000pt" height="512.000000pt" viewBox="0 0 512.000000 512.000000"
 preserveAspectRatio="xMidYMid meet">
<metadata>
Created by potrace 1.14, written by Peter Selinger 2001-2017
</metadata>
<g transform="translate(0.000000,512.000000) scale(0.100000,-0.100000)"
fill="#000000" stroke="none">
<path d="M1380 3821 c-5 -9 -10 -13 -10 -9 0 4 -29 -21 -64 -55 -34 -34 -88
-86 -120 -115 -31 -29 -56 -57 -56 -63 0 -5 -5 -9 -11 -9 -6 0 -54 -42 -107
-94 -53 -52 -116 -112 -139 -134 -23 -22 -39 -43 -35 -47 4 -5 2 -5 -4 -2 -6
3 -20 -4 -31 -16 -11 -12 -46 -45 -77 -74 -31 -29 -56 -58 -56 -64 0 -7 -3
-10 -6 -6 -7 7 -50 -35 -47 -45 2 -5 -1 -7 -6 -5 -9 2 -111 -89 -111 -101 0
-4 -16 -17 -35 -30 -35 -22 -35 -22 -36 -100 0 -117 0 -1646 0 -1657 1 -7 167
-10 478 -9 l478 0 2 862 c1 474 4 865 6 869 4 6 2294 10 2328 4 4 -1 7 -376 7
-833 1 -458 1 -849 1 -868 l1 -35 480 0 480 0 1 100 c0 55 0 445 0 867 l1 768
-50 47 c-27 27 -118 113 -202 193 -177 168 -194 184 -406 386 -88 83 -192 182
-233 221 l-73 70 -1169 0 c-1057 0 -1171 -2 -1179 -16z"/>
</g>
</svg>
